<?xml version="1.0" encoding="UTF-8" standalone="no"?>
<!DOCTYPE svg PUBLIC "-//W3C//DTD SVG 1.1//EN" "http://www.w3.org/Graphics/SVG/1.1/DTD/svg11.dtd">
<svg width="100%" height="100%" viewBox="0 0 610 342" version="1.1" xmlns="http://www.w3.org/2000/svg" xmlns:xlink="http://www.w3.org/1999/xlink" xml:space="preserve" xmlns:serif="http://www.serif.com/" style="fill-rule:evenodd;clip-rule:evenodd;stroke-linejoin:round;stroke-miterlimit:2;">
    <g transform="matrix(2.65343,0.859348,-0.859348,2.65343,381.931,280.741)">
        <path d="M-114.92,29.376C-109.259,25.439 -93.873,17.226 -86.323,13.317C-86.271,13.29 -86.167,13.236 -86.167,13.236L-84.684,17.815C-84.684,17.815 -84.785,17.878 -84.835,17.91C-93.413,23.325 -108.631,32.972 -115.274,39.104" style="fill:white;fill-rule:nonzero;"/>
    </g>
    <g transform="matrix(2.65343,0.859348,-0.859348,2.65343,381.931,273.712)">
        <path d="M-71.298,9.18C-71.298,9.18 -71.047,9.07 -70.922,9.015C-17.34,-14.482 52.376,-35.977 57.575,-37.177L57.187,-34.155C39.342,-29.178 -20.766,-12.557 -69.851,12.322C-69.974,12.385 -70.219,12.51 -70.219,12.51" style="fill:white;fill-rule:nonzero;"/>
    </g>
    <g transform="matrix(2.69408,0.721876,-0.721876,2.69408,375.199,273.562)">
        <path d="M0,-39.171L0.026,-39.225C0.114,-39.957 0.007,-40.363 -0.327,-40.611C-1.079,-41.17 -2.093,-40.76 -3.048,-40.085C-3.824,-39.537 -4.669,-38.826 -5.351,-38.07C-6.46,-36.842 -7.591,-35.335 -8.601,-33.9C-10.798,-30.775 -13.049,-26.187 -11.481,-25.096C-10.224,-24.221 -7.699,-25.578 -6.117,-27.468C-5.465,-28.249 -5.021,-28.702 -4.095,-30.087C-2.063,-33.124 -0.342,-36.964 0,-39.171M15.129,-40.339C19.491,-43.887 23.139,-49.441 26.937,-55.947C27.804,-57.675 29.791,-61.535 28.637,-62.335C27.771,-62.956 24.269,-60.028 20.228,-53.236C18.177,-50.034 15.206,-42.872 15.129,-40.339M33.419,-45.954L33.372,-45.569C36.687,-48.17 41.475,-54.686 44.7,-60.46C45.519,-61.961 46.407,-63.52 46.745,-65.15C47.168,-67.194 45.006,-66.137 45.006,-66.137C42.627,-64.972 38.875,-59.299 37.184,-56.306C35.134,-52.49 33.708,-48.245 33.419,-45.954M40.261,-29.06C30.731,-30.818 28.75,-36.956 28.75,-36.956C26.165,-34.318 26.007,-33.831 24.085,-32.052C21.746,-29.887 15.514,-25.439 12.392,-27.049C11.058,-27.728 10.247,-29.934 9.688,-31.345C7.11,-28.096 0.258,-19.702 -3.437,-22.452C-4.359,-23.14 -4.552,-24.541 -4.559,-25.677C-6.325,-23 -7.715,-21.276 -9.534,-19.842C-12.303,-17.623 -15.459,-17.626 -16.822,-19.154C-17.418,-19.822 -18.18,-20.921 -17.728,-23.817C-17.028,-28.291 -13.526,-34.666 -11.097,-37.736C-7.797,-41.86 -4.579,-44.323 -1.819,-44.403C-0.307,-44.446 1.06,-43.94 1.759,-42.72C1.759,-42.72 3.021,-44.873 3.587,-46.03L8.468,-47.338C6.706,-43.51 0.166,-30.154 1.502,-28.617C2.62,-27.329 7.687,-32.889 9.458,-34.937C9.727,-37.901 10.215,-39.535 11.124,-41.876C12.537,-45.373 15.104,-50.958 18.295,-55.65C22.687,-61.861 27.893,-68.333 31.395,-68.927C32.541,-69.219 33.994,-68.946 34.338,-67.182C34.34,-66.899 34.638,-65.134 33.205,-61.937C32.027,-59.265 29.692,-55.148 27.988,-52.517C24.498,-46.925 21.589,-43.433 18.961,-40.465C18.106,-39.594 16.863,-38.212 14.916,-36.349L14.912,-36.324C14.774,-34.093 15.782,-30.891 19.377,-31.813C22.133,-32.52 23.42,-34.84 28.104,-40.171C28.936,-44.831 29.721,-47.021 31.502,-51.076C33.404,-55.406 35.532,-59.334 36.971,-61.68C39.771,-65.995 41.745,-67.665 43.936,-69.586C45.748,-71.176 49.8,-73.24 51.57,-71.691C52.565,-70.82 52.162,-69.032 51.508,-66.977C50.928,-65.446 49.275,-61.35 46.367,-57.318C44.074,-54.115 41.208,-50.473 38.535,-47.655C36.962,-45.972 34.775,-43.225 33.333,-42.058L33.312,-41.879C32.186,-38.82 33.741,-33.735 43.299,-29.874" style="fill:white;fill-rule:nonzero;"/>
    </g>
    <g transform="matrix(2.78912,-2.60109e-16,3.90164e-16,2.78912,401.453,234.557)">
        <path d="M-19.601,-59.182C-19.613,-59.172 -19.631,-59.155 -19.644,-59.145C-19.732,-59.043 -19.814,-58.947 -19.892,-58.858C-19.796,-58.969 -19.71,-59.069 -19.644,-59.145C-19.749,-59.063 -19.878,-58.946 -20.022,-58.804C-21.295,-57.303 -23.709,-54.337 -26.771,-50.021C-27.273,-49.279 -27.772,-48.525 -28.259,-47.765C-29.973,-45.156 -31.719,-42.435 -33.451,-39.608C-32.151,-38.987 -28.717,-39.063 -25.863,-39.979C-17.972,-42.733 -13.187,-50.709 -14.337,-55.336C-14.584,-56.331 -15.503,-58.114 -19.601,-59.182M-26.16,-33.194C-26.16,-33.194 -29.373,-37.347 -36.21,-34.965C-38.405,-31.163 -40.534,-27.181 -42.483,-22.994C-43.811,-20.456 -44.878,-18.219 -45.845,-16.04C-45.836,-16.021 -45.83,-16.001 -45.819,-15.982C-44.567,-13.682 -41.081,-12.357 -38.396,-12.498C-35.961,-12.626 -33.797,-13.658 -32.361,-14.723C-27.028,-18.675 -22.688,-28.34 -26.16,-33.194M-49.686,-6.923L-58.622,-6.923C-58.622,-6.923 -58.494,-7.159 -58.449,-7.239C-50.999,-20.621 -35.861,-46.509 -23.791,-59.605C-43.976,-59.972 -55.498,-44.505 -56.348,-42.723C-57.509,-40.668 -58.037,-37.757 -57.103,-36.006C-56.51,-34.819 -55.031,-33.139 -51.813,-33.194C-53.9,-30.601 -57.572,-30.588 -59.842,-31.286C-60.862,-31.599 -61.501,-32.096 -61.501,-32.096C-63.175,-33.274 -63.858,-34.978 -63.858,-34.978C-64.727,-37.343 -64.184,-40.27 -63.355,-42.32C-60.534,-49.371 -49.997,-56.089 -45.352,-58.039C-36.942,-61.775 -31.188,-62.93 -21.475,-62.203C-19.482,-64.332 -16.871,-66.107 -15.384,-67.021C-12.734,-68.649 -10.214,-69.245 -8.351,-68.65C-6.618,-68.098 -6.342,-66.891 -6.611,-65.704C-6.885,-64.831 -7.51,-64.252 -8.312,-63.34C-8.663,-64.517 -10.177,-66.513 -12.776,-65.074C-12.776,-65.074 -14.979,-63.738 -17.398,-61.483C-14.911,-60.827 -12.868,-59.933 -11.707,-58.961C-7.714,-55.617 -7.659,-50.696 -10.494,-46.652C-11.918,-44.878 -15.583,-39.556 -26.088,-37.61C-23.415,-35.89 -18.634,-32.643 -20.019,-24.603C-20.693,-20.685 -22.937,-13.628 -31.205,-9.771C-34.374,-8.292 -38.735,-7.868 -42.558,-9.568C-44.446,-10.327 -46.01,-11.574 -47.136,-13.03C-47.871,-11.265 -48.585,-9.668 -49.363,-7.707C-49.425,-7.552 -49.686,-6.923 -49.686,-6.923Z" style="fill:white;fill-rule:nonzero;"/>
    </g>
    <g transform="matrix(4.85678,0,0,4.85678,-4071.74,-4676.6)">
        <g transform="matrix(1,0,0,1,0,-0.516638)">
            <path d="M851.204,1007.74L851.204,992.521C851.204,991.934 851.204,990.45 851.204,990.45C851.204,990.45 855.937,990.475 856.399,990.429L857.601,990.429C858.911,990.429 860.012,990.656 860.903,991.112C861.794,991.567 862.469,992.204 862.927,993.023C863.385,993.842 863.614,994.796 863.614,995.884C863.614,996.978 863.382,997.926 862.919,998.729C862.455,999.531 861.773,1000.15 860.874,1000.59C859.974,1001.02 858.176,1001.24 856.866,1001.24L853.003,1001.24L853.003,998.674L857.142,998.674C857.909,998.674 858.536,998.567 859.025,998.354C859.513,998.14 859.876,997.826 860.112,997.413C860.348,996.999 860.466,996.489 860.466,995.884C860.466,995.279 860.346,994.761 860.108,994.331C859.869,993.9 859.505,993.573 859.016,993.348C858.528,993.123 857.898,993.011 857.126,993.011L855.739,993.011C855.191,993.032 854.294,993.011 854.294,993.011C854.294,993.011 854.278,994.167 854.294,994.527L854.294,1007.74L851.204,1007.74ZM860.016,999.757C859.638,1003.98 864.239,1007.74 864.239,1007.74L862.226,1007.74C862.226,1007.74 858.206,1005.37 855.257,999.757L860.016,999.757Z" style="fill:white;fill-rule:nonzero;"/>
        </g>
        <g transform="matrix(1,0,0,1,0,-0.516638)">
            <path d="M870.319,1007.74C869.07,1007.74 867.987,1007.46 867.071,1006.91C866.155,1006.36 865.445,1005.59 864.943,1004.61C864.44,1003.62 864.189,1002.46 864.189,1001.14C864.189,999.818 864.44,998.661 864.943,997.667C865.445,996.673 866.155,995.901 867.071,995.351C867.987,994.801 869.07,994.527 870.319,994.527C871.254,994.527 872.095,994.68 872.843,994.988C873.095,995.091 873.337,995.213 873.568,995.351C873.845,995.518 874.343,995.911 874.343,995.911C874.343,995.911 875.087,996.657 875.381,997.115C875.494,997.291 875.598,997.474 875.696,997.667C876.198,998.661 876.449,999.818 876.449,1001.14C876.449,1002.46 876.198,1003.62 875.696,1004.61C875.193,1005.59 874.484,1006.36 873.568,1006.91C872.651,1007.46 871.569,1007.74 870.319,1007.74ZM870.336,1005.32C871.013,1005.32 871.58,1005.13 872.035,1004.76C872.49,1004.38 872.83,1003.88 873.055,1003.25C873.28,1002.61 873.393,1001.91 873.393,1001.13C873.393,1000.35 873.28,999.639 873.055,999.003C872.83,998.368 872.49,997.861 872.035,997.483C871.58,997.106 871.013,996.917 870.336,996.917C869.642,996.917 869.066,997.106 868.608,997.483C868.15,997.861 867.808,998.368 867.583,999.003C867.358,999.639 867.246,1000.35 867.246,1001.13C867.246,1001.91 867.358,1002.61 867.583,1003.25C867.808,1003.88 868.15,1004.38 868.608,1004.76C869.066,1005.13 869.642,1005.32 870.336,1005.32Z" style="fill:white;fill-rule:nonzero;"/>
        </g>
        <g transform="matrix(1,0,0,1,0,-0.516638)">
            <path d="M878.896,1007.74C878.777,1007.73 878.679,1007.74 878.571,1007.74C877.895,1007.73 875.877,1007.74 875.877,1007.74L884.021,997.3L884.021,997.192L877.641,997.192L879.674,994.693L884.845,994.693C885.662,995.802 887.665,995.852 888.332,995.837L881.349,1005.24L887.557,1005.24L886.018,1007.74L878.896,1007.74Z" style="fill:white;fill-rule:nonzero;"/>
        </g>
    </g>
    <g transform="matrix(4.08699,0,0,4.08699,-1762.71,-2544.26)">
        <g transform="matrix(0.889471,0,0,0.889471,-293.318,-200.773)">
            <path d="M870.319,1007.74C869.07,1007.74 867.987,1007.46 867.071,1006.91C866.155,1006.36 865.445,1005.59 864.943,1004.61C864.44,1003.62 864.189,1002.46 864.189,1001.14C864.189,999.818 864.44,998.661 864.943,997.667C865.445,996.673 866.155,995.901 867.071,995.351C867.987,994.801 869.07,994.527 870.319,994.527C871.254,994.527 872.095,994.68 872.843,994.988C873.095,995.091 873.337,995.213 873.568,995.351C873.845,995.518 874.343,995.911 874.343,995.911C874.343,995.911 875.087,996.657 875.381,997.115C875.494,997.291 875.598,997.474 875.696,997.667C876.198,998.661 876.449,999.818 876.449,1001.14C876.449,1002.46 876.198,1003.62 875.696,1004.61C875.193,1005.59 874.484,1006.36 873.568,1006.91C872.651,1007.46 871.569,1007.74 870.319,1007.74ZM870.336,1005.32C871.013,1005.32 871.58,1005.13 872.035,1004.76C872.49,1004.38 872.83,1003.88 873.055,1003.25C873.28,1002.61 873.393,1001.91 873.393,1001.13C873.393,1000.35 873.28,999.639 873.055,999.003C872.83,998.368 872.49,997.861 872.035,997.483C871.58,997.106 871.013,996.917 870.336,996.917C869.642,996.917 869.066,997.106 868.608,997.483C868.15,997.861 867.808,998.368 867.583,999.003C867.358,999.639 867.246,1000.35 867.246,1001.13C867.246,1001.91 867.358,1002.61 867.583,1003.25C867.808,1003.88 868.15,1004.38 868.608,1004.76C869.066,1005.13 869.642,1005.32 870.336,1005.32Z" style="fill:white;fill-rule:nonzero;"/>
        </g>
        <g transform="matrix(0.993166,0,0,0.960748,2.4279,27.3106)">
            <path d="M501.48,686.55L500.129,686.712C500.057,686.454 499.462,686.029 499.216,685.879C498.334,685.338 497.563,685.31 497.131,685.292C495.849,685.239 495.427,685.55 495.033,685.802C494.64,686.054 494.446,686.381 494.451,686.782C494.446,687.127 494.573,687.407 494.833,687.623C495.092,687.839 495.523,688.017 496.125,688.156L498.147,688.588C499.268,688.829 500.102,689.213 500.65,689.737C501.198,690.262 501.475,690.949 501.48,691.797C501.475,692.543 501.257,693.2 500.828,693.769C500.398,694.337 499.803,694.781 499.042,695.1C498.28,695.419 497.406,695.578 496.418,695.578C494.968,695.578 493.8,695.273 492.915,694.664C492.03,694.054 491.503,693.204 491.333,692.114L492.748,691.851C492.872,692.386 493.515,692.855 493.953,693.063C494.531,693.337 495.767,693.472 496.41,693.472C497.074,693.472 497.608,693.335 498.012,693.063C498.415,692.79 498.617,692.453 498.617,692.052C498.617,691.713 498.487,691.432 498.228,691.211C497.968,690.99 497.565,690.82 497.02,690.702L494.998,690.277C493.862,690.041 493.021,689.641 492.475,689.078C491.93,688.514 491.66,687.801 491.665,686.936C491.66,686.206 491.859,685.572 492.263,685.034C492.667,684.497 493.23,684.08 493.953,683.785C494.676,683.489 495.51,683.341 496.457,683.341C497.846,683.341 498.94,683.637 499.74,684.228C500.54,684.82 501.289,685.542 501.48,686.55Z" style="fill:white;fill-rule:nonzero;"/>
        </g>
        <g transform="matrix(0.941806,0,0,0.941806,27.6626,40.4788)">
            <path d="M521.928,695.586C521.177,695.586 520.502,695.451 519.902,695.181C519.303,694.911 518.83,694.511 518.483,693.981C518.135,693.451 517.962,692.798 517.962,692.021C517.962,691.352 518.085,690.8 518.332,690.362C518.579,689.925 518.916,689.575 519.343,689.313C519.77,689.051 520.252,688.851 520.79,688.715C521.327,688.579 521.884,688.48 522.46,688.418C523.154,688.346 523.718,688.28 524.15,688.221C524.582,688.162 524.897,688.069 525.095,687.943C525.293,687.817 525.392,687.621 525.392,687.353L525.392,687.307C525.392,686.726 525.22,686.275 524.875,685.957C524.53,685.638 524.032,685.528 523.386,685.478C520.028,685.217 518.347,686.612 518.347,686.612L518.347,685.447C518.347,685.447 519.349,684.349 521.102,683.707C521.784,683.458 522.542,683.341 523.371,683.341C523.941,683.341 524.51,683.408 525.076,683.541C525.642,683.675 526.158,683.895 526.627,684.201C527.095,684.507 527.471,684.923 527.757,685.447C528.042,685.972 528.185,686.628 528.185,687.415L528.185,695.347L525.5,695.347L525.5,693.719L525.407,693.719C525.238,694.048 525,694.355 524.694,694.641C524.388,694.926 524.004,695.155 523.544,695.327C523.084,695.5 522.545,695.586 521.928,695.586ZM522.653,693.533C523.214,693.533 523.7,693.422 524.111,693.198C524.523,692.974 524.84,692.677 525.064,692.307C525.288,691.936 525.4,691.533 525.4,691.095L525.4,689.699C525.312,689.771 525.164,689.838 524.956,689.899C524.748,689.961 524.515,690.015 524.258,690.061C524.001,690.108 523.746,690.149 523.494,690.185C523.242,690.221 523.023,690.252 522.838,690.277C522.421,690.334 522.049,690.427 521.719,690.555C521.39,690.684 521.13,690.863 520.94,691.091C520.75,691.32 520.655,691.615 520.655,691.975C520.655,692.489 520.842,692.878 521.218,693.14C521.593,693.402 522.072,693.533 522.653,693.533ZM522.469,681.791L524.111,679.113L526.627,679.025L524.56,681.791L522.469,681.791Z" style="fill:white;fill-rule:nonzero;"/>
        </g>
        <g transform="matrix(0.941806,0,0,0.941806,27.6626,40.4788)">
            <path d="M529.698,695.347L529.698,683.341L530.57,683.341C531.753,683.339 532.325,684.954 532.367,685.509L532.506,685.509C532.753,684.83 533.162,684.299 533.733,683.916C534.304,683.532 534.986,683.341 535.778,683.341C536.58,683.341 537.258,683.535 537.811,683.923C538.364,684.312 538.754,684.84 538.98,685.509L539.103,685.509C539.366,684.851 539.809,684.325 540.434,683.931C541.059,683.538 541.801,683.341 542.66,683.341C543.751,683.341 544.641,683.686 545.33,684.375C546.019,685.064 546.364,686.07 546.364,687.392L546.364,695.347L543.563,695.347L543.563,687.824C543.563,687.088 543.368,686.549 542.977,686.207C542.586,685.865 542.107,685.694 541.542,685.694C540.868,685.694 540.342,685.904 539.964,686.323C539.586,686.742 539.397,687.286 539.397,687.955L539.397,695.347L536.657,695.347L536.657,687.708C536.657,687.096 536.474,686.607 536.106,686.242C535.738,685.877 535.258,685.694 534.667,685.694C534.266,685.694 533.9,685.796 533.571,685.999C533.242,686.202 532.98,686.488 532.784,686.855C532.589,687.223 532.491,687.651 532.491,688.14L532.491,695.347L529.698,695.347Z" style="fill:white;fill-rule:nonzero;"/>
        </g>
        <g transform="matrix(0.941806,0,0,0.941806,27.6626,40.4788)">
            <path d="M509.366,688.402L509.366,695.347L506.573,695.347L506.573,683.341L507.379,683.341C508.696,683.372 509.102,684.898 509.243,685.509L509.381,685.509C509.654,684.845 510.09,684.318 510.689,683.927C511.288,683.536 512.03,683.341 512.915,683.341C513.733,683.341 514.447,683.516 515.056,683.866C515.666,684.215 516.139,684.722 516.476,685.386C516.813,686.049 516.979,686.854 516.974,687.801L516.974,695.347L514.181,695.347L514.181,688.233C514.181,687.441 513.976,686.821 513.567,686.373C513.158,685.926 512.594,685.702 511.874,685.702C511.385,685.702 510.952,685.809 510.573,686.022C510.195,686.236 509.9,686.543 509.686,686.944C509.473,687.345 509.366,687.831 509.366,688.402Z" style="fill:white;fill-rule:nonzero;"/>
        </g>
        <path d="M474.997,680.546L474.997,683.128L467.645,684.548L467.645,681.478L474.997,680.546ZM469.821,678.936L472.614,678.524L472.614,691.782C472.622,694.285 474.844,694.248 474.844,694.248C474.844,694.248 474.559,695.44 472.87,695.509C471.232,695.576 470.63,694.591 470.303,694.097C469.976,693.603 469.816,692.986 469.821,692.245L469.821,678.936Z" style="fill:white;fill-rule:nonzero;"/>
        <g transform="matrix(1,0,0,1,73.8203,-0.151356)">
            <path d="M469.821,684.205L472.614,684.205L472.614,691.782C472.622,694.285 474.844,694.248 474.844,694.248C474.844,694.248 474.559,695.44 472.87,695.509C471.232,695.576 470.63,694.591 470.303,694.097C469.976,693.603 469.816,692.986 469.821,692.245L469.821,684.205Z" style="fill:white;fill-rule:nonzero;"/>
        </g>
    </g>
    <g transform="matrix(3.84915,0,0,3.84915,-1649.66,-2378.82)">
        <path d="M549.304,681.813C548.857,681.813 548.475,681.665 548.158,681.369C547.842,681.074 547.684,680.717 547.684,680.301C547.684,679.879 547.843,679.52 548.162,679.224C548.481,678.929 548.862,678.781 549.304,678.781C549.746,678.781 550.126,678.929 550.442,679.224C550.758,679.52 550.917,679.879 550.917,680.301C550.917,680.717 550.758,681.074 550.442,681.369C550.126,681.665 549.746,681.813 549.304,681.813Z" style="fill:white;fill-rule:nonzero;"/>
    </g>
</svg>
