<?xml version="1.0" encoding="UTF-8" standalone="no"?>
<!DOCTYPE svg PUBLIC "-//W3C//DTD SVG 1.1//EN" "http://www.w3.org/Graphics/SVG/1.1/DTD/svg11.dtd">
<svg width="100%" height="100%" viewBox="0 0 80 80" version="1.1" xmlns="http://www.w3.org/2000/svg" xmlns:xlink="http://www.w3.org/1999/xlink" xml:space="preserve" xmlns:serif="http://www.serif.com/" style="fill-rule:evenodd;clip-rule:evenodd;stroke-linejoin:round;stroke-miterlimit:2;">
    <g transform="matrix(0.588669,0,0,0.588669,13.5104,13.5099)">
        <path d="M84.494,22.535C79.35,22.535 74.603,20.831 70.792,17.956C66.421,14.66 63.28,9.826 62.171,4.254C61.895,2.877 61.748,1.456 61.733,0L47.038,0L47.038,40.154L47.02,62.148C47.02,68.028 43.191,73.014 37.883,74.767C36.343,75.276 34.679,75.517 32.946,75.422C30.735,75.301 28.663,74.633 26.862,73.556C23.029,71.264 20.431,67.105 20.36,62.348C20.249,54.913 26.26,48.852 33.689,48.852C35.156,48.852 36.564,49.091 37.883,49.526L37.883,34.607C36.492,34.401 35.077,34.294 33.645,34.294C25.513,34.294 17.908,37.674 12.471,43.764C8.362,48.366 5.897,54.237 5.517,60.394C5.019,68.482 7.978,76.17 13.718,81.843C14.561,82.676 15.447,83.449 16.373,84.162C21.294,87.947 27.31,90 33.646,90C35.077,90 36.493,89.894 37.884,89.688C43.803,88.811 49.264,86.102 53.574,81.841C58.87,76.607 61.796,69.658 61.827,62.262L61.751,29.418C64.277,31.367 67.04,32.98 70.004,34.231C74.615,36.176 79.504,37.162 84.535,37.161L84.535,22.532C84.539,22.535 84.497,22.535 84.494,22.535Z" style="fill:url(#_Linear1);fill-rule:nonzero;"/>
    </g>
    <defs>
        <linearGradient id="_Linear1" x1="0" y1="0" x2="1" y2="0" gradientUnits="userSpaceOnUse" gradientTransform="matrix(79.0723,0,0,90,5.46294,45)"><stop offset="0" style="stop-color:rgb(0,161,255);stop-opacity:1"/><stop offset="1" style="stop-color:rgb(0,186,255);stop-opacity:1"/></linearGradient>
    </defs>
</svg>
