<?xml version="1.0" encoding="UTF-8" standalone="no"?>
<!DOCTYPE svg PUBLIC "-//W3C//DTD SVG 1.1//EN" "http://www.w3.org/Graphics/SVG/1.1/DTD/svg11.dtd">
<svg width="100%" height="100%" viewBox="0 0 80 80" version="1.1" xmlns="http://www.w3.org/2000/svg" xmlns:xlink="http://www.w3.org/1999/xlink" xml:space="preserve" xmlns:serif="http://www.serif.com/" style="fill-rule:evenodd;clip-rule:evenodd;stroke-linejoin:round;stroke-miterlimit:2;">
    <g transform="matrix(0.603344,0,0,0.603344,12.8495,12.8495)">
        <path d="M88.119,23.338C87.084,19.466 84.034,16.416 80.162,15.381C73.144,13.5 45,13.5 45,13.5C45,13.5 16.856,13.5 9.838,15.381C5.966,16.416 2.916,19.466 1.881,23.338C0,30.356 0,45 0,45C0,45 0,59.644 1.881,66.662C2.916,70.534 5.966,73.584 9.838,74.619C16.856,76.5 45,76.5 45,76.5C45,76.5 73.144,76.5 80.162,74.619C84.034,73.584 87.084,70.534 88.119,66.662C90,59.644 90,45 90,45C90,45 90,30.356 88.119,23.338Z" style="fill:url(#_Linear1);"/>
    </g>
    <g transform="matrix(0.603344,0,0,0.603344,12.8495,12.8495)">
        <path d="M36,58.5L59.38,45L36,31.5L36,58.5Z" style="fill:white;"/>
    </g>
    <defs>
        <linearGradient id="_Linear1" x1="0" y1="0" x2="1" y2="0" gradientUnits="userSpaceOnUse" gradientTransform="matrix(90,0,0,63,0,45)"><stop offset="0" style="stop-color:rgb(0,161,255);stop-opacity:1"/><stop offset="1" style="stop-color:rgb(0,186,255);stop-opacity:1"/></linearGradient>
    </defs>
</svg>
